<svg xmlns="http://www.w3.org/2000/svg" width="2048" height="2048" viewBox="0 0 2048 2048" version="1.1">
<rect width="100%" height="100%" fill="#3c2b1c"/>
<g transform="scale(3) translate(-170,-170)">
<path d="M 546.394 309.544 C 493.812 317.219, 440.673 346.208, 394.441 392.441 C 368.228 418.653, 349.341 444.425, 334.138 474.726 C 311.599 519.648, 303.624 565.057, 311.523 603.500 C 317.050 630.403, 330.008 651.448, 345.845 659.244 C 351.975 662.262, 353.190 662.500, 362.479 662.500 C 370.429 662.500, 373.947 662.006, 379.500 660.108 C 405.430 651.249, 436.431 628.961, 456.847 604.500 C 479.718 577.097, 492.624 549.216, 501.925 507.120 C 509.106 474.619, 517.798 452.495, 531.412 432.070 C 551.708 401.620, 581.122 378.106, 619.946 361.298 C 635.308 354.647, 638.197 352.956, 641.298 348.802 C 643.732 345.542, 644.581 338.290, 643.066 333.699 C 639.664 323.393, 619.897 313.591, 594.051 309.396 C 583.450 307.675, 558.672 307.752, 546.394 309.544 M 561.500 330.675 C 533.530 332.838, 509.707 339.603, 482.964 352.977 C 417.947 385.494, 363.695 446.542, 342.090 511.500 C 336.178 529.275, 333.417 542.214, 331.963 558.967 C 330.088 580.555, 333.776 604.407, 341.412 620.088 C 343.397 624.165, 344.747 626.600, 344.411 625.500 C 340.878 613.915, 339.646 603.614, 339.624 585.500 C 339.604 568.658, 339.904 565.080, 342.267 554 C 350.431 515.722, 368.657 478.664, 396.615 443.500 C 407.717 429.537, 431.255 406.014, 445.500 394.647 C 482.966 364.751, 524.641 345.188, 563.120 339.434 C 573.394 337.898, 597.405 337.370, 609 338.426 C 615.500 339.018, 615.500 339.018, 610.043 337 C 599.073 332.942, 574.160 329.696, 561.500 330.675 M 648.500 362.865 C 622.159 370.928, 595.474 388.196, 572.888 411.794 C 547.657 438.154, 534.062 465.177, 524.508 507.961 C 519.441 530.653, 515.013 545.555, 509.490 558.500 C 498.494 584.274, 486.833 601.185, 466.364 621.038 C 447.715 639.125, 426.807 653.067, 401.826 664.075 C 386.692 670.744, 381.542 675.114, 380.491 682.175 C 379.492 688.891, 381.258 693.121, 387.405 698.739 C 398.583 708.955, 424.955 716, 452.021 716 C 482.588 716, 511.335 708.702, 544.500 692.523 C 608.981 661.068, 661.825 607.938, 692.442 543.783 C 706.254 514.842, 713.760 487.182, 715.586 458.500 C 717.129 434.262, 710.691 404.707, 699.833 386.185 C 695.073 378.066, 684.682 367.928, 677.581 364.477 C 669.878 360.733, 657.676 360.056, 648.500 362.865 M 679.456 398.500 C 679.693 399.600, 680.561 402.975, 681.384 406 C 686.053 423.143, 686.156 451.127, 681.628 472.203 C 671.700 518.417, 643.414 566.834, 602.570 607.525 C 558.230 651.700, 502.642 680.317, 449.904 686.120 C 439.901 687.220, 413.619 686.793, 409.429 685.462 C 407.809 684.947, 407.756 685.015, 409.095 685.887 C 409.972 686.459, 415.060 688.061, 420.402 689.449 C 456.108 698.727, 496.466 692.667, 539.500 671.568 C 601.722 641.060, 654.794 583.479, 679.421 519.758 C 695.970 476.941, 697.292 433.738, 682.949 404.500 C 680.791 400.100, 679.219 397.400, 679.456 398.500" stroke="none" fill="#ffe5cfff" fill-rule="evenodd"/>
</g>
</svg>